<svg xmlns="http://www.w3.org/2000/svg" viewBox="0 0 240 410" width="240" height="410">
<!-- Flek! tribute · moderní mariášová sada · MIT © 2026 Dušan Saiko · https://flek.saiko.cz -->
<title>king of bells</title>
<rect x="1" y="1" width="238" height="408" rx="14" fill="#ffffff" stroke="#d9d9e0" stroke-width="2"/>
  <g><text x="28" y="44" text-anchor="middle" font-family="-apple-system, 'Segoe UI', Helvetica, Arial, sans-serif" font-size="30" font-weight="700" fill="#a06d00">K</text></g><g transform="rotate(180 120 205)"><text x="28" y="44" text-anchor="middle" font-family="-apple-system, 'Segoe UI', Helvetica, Arial, sans-serif" font-size="30" font-weight="700" fill="#a06d00">K</text></g>
  <rect x="36" y="70" width="168" height="270" rx="14" fill="#c8890a" fill-opacity="0.06" stroke="#c8890a" stroke-opacity="0.3"/>
  <g transform="translate(120 205) scale(1.12) translate(-120 -205)">
  <circle cx="120" cy="186" r="24" fill="#2f2f3a"/>
  <path d="M76 322 C80 270 96 222 120 220 C144 222 160 270 164 322 Z" fill="#c8890a"/>
  <g transform="translate(120 272) scale(0.6)"><circle cx="0" cy="-2" r="27" fill="#ffffff"/><path d="M-25 -8 Q0 4 25 -8" stroke="#c8890a" stroke-width="3" fill="none"/><path d="M0 10 L5.5 16.5 L0 23 L-5.5 16.5 Z" fill="#c8890a"/></g>
  <path d="M94 170 L94 144 L107 156 L120 138 L133 156 L146 144 L146 170 Z" fill="#e8b100" stroke="#a87c00" stroke-width="2"/>
  <circle cx="94" cy="142" r="3.4" fill="#e8b100" stroke="#a87c00" stroke-width="1.6"/>
  <circle cx="120" cy="136" r="3.4" fill="#e8b100" stroke="#a87c00" stroke-width="1.6"/>
  <circle cx="146" cy="142" r="3.4" fill="#e8b100" stroke="#a87c00" stroke-width="1.6"/>
  </g>
</svg>
