<svg xmlns="http://www.w3.org/2000/svg" viewBox="0 0 240 410" width="240" height="410">
<!-- Flek! tribute · moderní mariášová sada · MIT © 2026 Dušan Saiko · https://flek.saiko.cz -->
<title>král žaludy</title>
<rect x="1" y="1" width="238" height="408" rx="14" fill="#ffffff" stroke="#d9d9e0" stroke-width="2"/>
  <g><text x="28" y="44" text-anchor="middle" font-family="-apple-system, 'Segoe UI', Helvetica, Arial, sans-serif" font-size="30" font-weight="700" fill="#6d4c2b">K</text></g><g transform="rotate(180 120 205)"><text x="28" y="44" text-anchor="middle" font-family="-apple-system, 'Segoe UI', Helvetica, Arial, sans-serif" font-size="30" font-weight="700" fill="#6d4c2b">K</text></g>
  <rect x="36" y="70" width="168" height="270" rx="14" fill="#7a4f2b" fill-opacity="0.06" stroke="#7a4f2b" stroke-opacity="0.3"/>
  <g transform="translate(120 205) scale(1.12) translate(-120 -205)">
  <circle cx="120" cy="186" r="24" fill="#2f2f3a"/>
  <path d="M76 322 C80 270 96 222 120 220 C144 222 160 270 164 322 Z" fill="#7a4f2b"/>
  <g transform="translate(120 272) scale(0.78)"><g transform="translate(-32 -32)"><path fill="#ffffff" d="M32 23c10 0 16 8 16 17 0 9-7 15-14 17l-2 3-2-3c-7-2-14-8-14-17 0-9 6-17 16-17z"/><path fill="#7a4f2b" d="M17 27c0-8 6-14 15-14s15 6 15 14c0 2-1 3-3 3H20c-2 0-3-1-3-3z"/><path stroke="#ffffff" stroke-width="1.5" fill="none" d="M20 23h24M22 19h20M26 15.5h12M24 27v-4M32 27v-4M40 27v-4M28 23v-4M36 23v-4"/></g></g>
  <path d="M94 170 L94 144 L107 156 L120 138 L133 156 L146 144 L146 170 Z" fill="#e8b100" stroke="#a87c00" stroke-width="2"/>
  <circle cx="94" cy="142" r="3.4" fill="#e8b100" stroke="#a87c00" stroke-width="1.6"/>
  <circle cx="120" cy="136" r="3.4" fill="#e8b100" stroke="#a87c00" stroke-width="1.6"/>
  <circle cx="146" cy="142" r="3.4" fill="#e8b100" stroke="#a87c00" stroke-width="1.6"/>
  </g>
</svg>
