<svg xmlns="http://www.w3.org/2000/svg" viewBox="0 0 240 410" width="240" height="410">
<!-- Flek! tribute · moderní mariášová sada · MIT © 2026 Dušan Saiko · https://flek.saiko.cz -->
<title>svršek žaludy</title>
<rect x="1" y="1" width="238" height="408" rx="14" fill="#ffffff" stroke="#d9d9e0" stroke-width="2"/>
  <g><text x="28" y="44" text-anchor="middle" font-family="-apple-system, 'Segoe UI', Helvetica, Arial, sans-serif" font-size="30" font-weight="700" fill="#6d4c2b">V</text></g><g transform="rotate(180 120 205)"><text x="28" y="44" text-anchor="middle" font-family="-apple-system, 'Segoe UI', Helvetica, Arial, sans-serif" font-size="30" font-weight="700" fill="#6d4c2b">V</text></g>
  <rect x="36" y="70" width="168" height="270" rx="14" fill="#7a4f2b" fill-opacity="0.06" stroke="#7a4f2b" stroke-opacity="0.3"/>
  <g transform="translate(120 205) scale(1.12) translate(-120 -205)">
  <g transform="translate(120 140) scale(0.86)"><g transform="translate(-32 -32)"><path fill="#a8321e" stroke="#1c2127" stroke-width="2" stroke-linejoin="round" d="M32 23c10 0 16 8 16 17 0 9-7 15-14 17l-2 3-2-3c-7-2-14-8-14-17 0-9 6-17 16-17z"/><path fill="#6e1d12" d="M32 23c10 0 16 8 16 17 0 9-7 15-14 17l-2 3V23z" opacity=".5"/><path fill="#2f8a3a" stroke="#1c2127" stroke-width="2" stroke-linejoin="round" d="M17 27c0-8 6-14 15-14s15 6 15 14c0 2-1 3-3 3H20c-2 0-3-1-3-3z"/><path stroke="#1c2127" stroke-width="1.5" fill="none" d="M20 23h24M22 19h20M26 15.5h12M24 27v-4M32 27v-4M40 27v-4M28 23v-4M36 23v-4"/><path fill="#e1b600" stroke="#1c2127" stroke-width="1.5" d="M30 5h4v9h-4z"/><path fill="#e1b600" d="M28 34c-2 6 0 12 4 16-5-3-7-10-4-16z"/></g></g>
  <circle cx="120" cy="212" r="21" fill="#2f2f3a"/>
  <path d="M101 194 A19 15 0 0 1 139 194 Z" fill="#7a4f2b"/>
  <ellipse cx="120" cy="194" rx="30" ry="5.5" fill="#7a4f2b"/>
  <path d="M80 322 C84 276 96 242 120 240 C144 242 156 276 160 322 Z" fill="#7a4f2b"/>
  </g>
</svg>
