<svg xmlns="http://www.w3.org/2000/svg" viewBox="0 0 240 410" width="240" height="410"><title>eso žaludy</title><rect x="1" y="1" width="238" height="408" rx="16" fill="#fbf6ea" stroke="#e3d9c3" stroke-width="2"></rect><rect x="10" y="10" width="220" height="390" rx="10" fill="none" stroke="#8a5530" stroke-opacity=".5" stroke-width="1.2"></rect><text x="30" y="52" text-anchor="middle" font-family="Georgia, 'Times New Roman', serif" font-size="40" font-weight="700" fill="#7a4a28" letter-spacing="0">A</text><g transform="translate(30 82) rotate(0) scale(0.46875) translate(-32 -32)"><rect x="29.5" y="3" width="5" height="10" rx="2.5" fill="#5c3719"></rect><path fill="#8a5530" d="M17 30C17 45 25 55 32 61 39 55 47 45 47 30Z"></path><path fill="#5c3719" d="M13 33C13 20 21 11.5 32 11.5S51 20 51 33Z"></path><path fill="none" stroke="#8a5530" stroke-width="2" opacity=".55" d="M20 20L28 33M28 13.5L38 33M38 13.5L46 26M44 20L36 33M36 13L26 33M26 14L18 27"></path></g><g transform="rotate(180 120 205)"><text x="30" y="52" text-anchor="middle" font-family="Georgia, 'Times New Roman', serif" font-size="40" font-weight="700" fill="#7a4a28" letter-spacing="0">A</text><g transform="translate(30 82) rotate(0) scale(0.46875) translate(-32 -32)"><rect x="29.5" y="3" width="5" height="10" rx="2.5" fill="#5c3719"></rect><path fill="#8a5530" d="M17 30C17 45 25 55 32 61 39 55 47 45 47 30Z"></path><path fill="#5c3719" d="M13 33C13 20 21 11.5 32 11.5S51 20 51 33Z"></path><path fill="none" stroke="#8a5530" stroke-width="2" opacity=".55" d="M20 20L28 33M28 13.5L38 33M38 13.5L46 26M44 20L36 33M36 13L26 33M26 14L18 27"></path></g></g><circle cx="120" cy="205" r="84" fill="none" stroke="#8a5530" stroke-opacity=".45" stroke-width="1.5" stroke-dasharray="2 5"></circle><g transform="translate(120 205) rotate(0) scale(1.875) translate(-32 -32)"><rect x="29.5" y="3" width="5" height="10" rx="2.5" fill="#5c3719"></rect><path fill="#8a5530" d="M17 30C17 45 25 55 32 61 39 55 47 45 47 30Z"></path><path fill="#5c3719" d="M13 33C13 20 21 11.5 32 11.5S51 20 51 33Z"></path><path fill="none" stroke="#8a5530" stroke-width="2" opacity=".55" d="M20 20L28 33M28 13.5L38 33M38 13.5L46 26M44 20L36 33M36 13L26 33M26 14L18 27"></path></g></svg>