<svg xmlns="http://www.w3.org/2000/svg" viewBox="0 0 240 410" width="240" height="410"><title>spodek červené</title><rect x="1" y="1" width="238" height="408" rx="16" fill="#fbf6ea" stroke="#e3d9c3" stroke-width="2"></rect><rect x="10" y="10" width="220" height="390" rx="10" fill="none" stroke="#d6313a" stroke-opacity=".5" stroke-width="1.2"></rect><text x="30" y="52" text-anchor="middle" font-family="Georgia, 'Times New Roman', serif" font-size="40" font-weight="700" fill="#c42630" letter-spacing="0">J</text><g transform="translate(30 82) rotate(0) scale(0.46875) translate(-32 -32)"><path fill="#d6313a" d="M32 57C12 43 4 31 4 20.5 4 11.5 11 5 19.5 5 25 5 29.5 8.5 32 13 34.5 8.5 39 5 44.5 5 53 5 60 11.5 60 20.5 60 31 52 43 32 57Z"></path><path fill="#9e1f27" opacity=".35" d="M32 57C44 48.5 60 35 60 20.5 60 14 56.5 9 51 6.5 55 12 55 20 50 29 45 38 38 47 32 57Z"></path></g><g transform="rotate(180 120 205)"><text x="30" y="52" text-anchor="middle" font-family="Georgia, 'Times New Roman', serif" font-size="40" font-weight="700" fill="#c42630" letter-spacing="0">J</text><g transform="translate(30 82) rotate(0) scale(0.46875) translate(-32 -32)"><path fill="#d6313a" d="M32 57C12 43 4 31 4 20.5 4 11.5 11 5 19.5 5 25 5 29.5 8.5 32 13 34.5 8.5 39 5 44.5 5 53 5 60 11.5 60 20.5 60 31 52 43 32 57Z"></path><path fill="#9e1f27" opacity=".35" d="M32 57C44 48.5 60 35 60 20.5 60 14 56.5 9 51 6.5 55 12 55 20 50 29 45 38 38 47 32 57Z"></path></g></g><path d="M54 62H186V348H54Z" fill="#d6313a" fill-opacity=".07"></path><rect x="54" y="62" width="132" height="286" rx="4" fill="none" stroke="#d6313a" stroke-width="1.5"></rect><text x="120" y="176" text-anchor="middle" font-family="Georgia, 'Times New Roman', serif" font-size="96" font-weight="700" fill="#c42630">J</text><g transform="translate(164 168) rotate(0) scale(0.53125) translate(-32 -32)"><path fill="#d6313a" d="M32 57C12 43 4 31 4 20.5 4 11.5 11 5 19.5 5 25 5 29.5 8.5 32 13 34.5 8.5 39 5 44.5 5 53 5 60 11.5 60 20.5 60 31 52 43 32 57Z"></path><path fill="#9e1f27" opacity=".35" d="M32 57C44 48.5 60 35 60 20.5 60 14 56.5 9 51 6.5 55 12 55 20 50 29 45 38 38 47 32 57Z"></path></g><g transform="rotate(180 120 205)"><text x="120" y="176" text-anchor="middle" font-family="Georgia, 'Times New Roman', serif" font-size="96" font-weight="700" fill="#c42630">J</text><g transform="translate(164 168) rotate(0) scale(0.53125) translate(-32 -32)"><path fill="#d6313a" d="M32 57C12 43 4 31 4 20.5 4 11.5 11 5 19.5 5 25 5 29.5 8.5 32 13 34.5 8.5 39 5 44.5 5 53 5 60 11.5 60 20.5 60 31 52 43 32 57Z"></path><path fill="#9e1f27" opacity=".35" d="M32 57C44 48.5 60 35 60 20.5 60 14 56.5 9 51 6.5 55 12 55 20 50 29 45 38 38 47 32 57Z"></path></g></g><line x1="66" y1="205" x2="174" y2="205" stroke="#d6313a" stroke-width="1.2"></line><path d="M120 197L128 205 120 213 112 205Z" fill="#d6313a"></path></svg>